<?xml version="1.0" encoding="utf-8"?>
<!-- Generator: Adobe Illustrator 26.0.1, SVG Export Plug-In . SVG Version: 6.00 Build 0)  -->
<svg version="1.1" id="Layer_1" xmlns="http://www.w3.org/2000/svg" xmlns:xlink="http://www.w3.org/1999/xlink" x="0px" y="0px"
	 viewBox="0 0 1800.37 777.06" style="enable-background:new 0 0 1800.37 777.06;" xml:space="preserve">
<style type="text/css">
	.st0{fill:#FFFFFF;}
	.st1{fill:#EE1D25;}
	.st2{fill-rule:evenodd;clip-rule:evenodd;fill:#5AB350;}
	.st3{fill-rule:evenodd;clip-rule:evenodd;fill:#EE1D25;}
	.st4{fill:#FDF8FC;}
	.st5{fill-rule:evenodd;clip-rule:evenodd;fill:#FFD400;}
	.st6{fill:#FFD400;}
</style>
<g>
	<g>
		<path class="st0" d="M1715.42,441.29c-10.16-5.52-20.97-8.32-32.14-8.32c-4.21,0-8.25,0.41-12.11,1.1v-34.75
			c0.63-2.7,0.96-5.51,0.96-8.39v-48.78c4.4,0.74,8.77,1.12,13.1,1.12c25.2,0,47.2-12.86,60.38-35.28
			c10.23-17.4,12.91-38.82,7.37-58.75c-5.53-19.9-18.86-36.82-36.55-46.42c-10.16-5.52-20.97-8.32-32.14-8.32
			c-4.21,0-8.25,0.41-12.11,1.1v-1.62c0-0.6-0.01-1.19-0.04-1.78v-49.54c0-20.35-16.5-36.85-36.85-36.85h-0.96
			c-2.12,0-4.19,0.18-6.21,0.52h-81.67c-11.28,0-22.11,4.04-30.49,11.39c-2.34,2.05-4.45,4.26-6.33,6.61
			c-0.66-0.82-1.34-1.63-2.06-2.42c-8.95-9.9-21.86-15.58-35.44-15.58H1391c-0.13,0-52.07,0.53-52.07,0.53
			c1.73-10.28,1.46-20.43-0.9-30.02c-4.49-18.26-15.99-33.27-33.25-43.41c-11.38-6.69-24.49-10.22-37.91-10.22
			c-28.3,0-54.07,15.1-67.26,39.4c-8.72,16.06-9.61,31.19-7.23,44.24l-49.24-0.52c-0.13,0-82.84,0-82.84,0
			c-14.81,0-28.54,6.59-37.65,18.09c-9.22-11.27-23.22-18.08-38.34-18.08h-70.81c-3.35-1-6.9-1.54-10.58-1.54h-48.99
			c1.57-12.59,0-26.89-8.24-42.04c-10-18.38-27.57-32.21-48.24-37.94c-7-1.94-14.22-2.92-21.46-2.92c-14.01,0-27.66,3.67-39.5,10.63
			C718.55,43.06,706.6,58.7,701.9,77.78c-2.13,8.68-2.62,17.78-1.52,27.02h-33.31c-2.22-0.42-4.5-0.63-6.84-0.63H406.9
			c-2.34,0-4.63,0.22-6.84,0.63h-31.02c1.57-12.58-0.01-26.89-8.25-42.05c-10-18.38-27.57-32.21-48.24-37.94
			c-7-1.94-14.23-2.92-21.47-2.92c-14.02,0-27.67,3.68-39.45,10.62c-17.94,10.54-29.9,26.18-34.61,45.27
			c-2.13,8.68-2.61,17.78-1.52,27.02h-50.79c-20.35,0-36.85,16.5-36.85,36.85v50.88c-3.27-0.4-6.54-0.61-9.77-0.61
			c-6.04,0-11.99,0.71-17.69,2.11c-19.02,4.69-34.66,16.64-45.21,34.58c-10.63,18.08-13.44,40.31-7.68,61.02
			c5.76,20.66,19.61,38.22,37.97,48.18c10.65,5.78,21.92,8.71,33.5,8.71c3.05,0,6-0.2,8.87-0.56v27.73
			c-0.63,2.69-0.96,5.5-0.96,8.38v90.08c0,3.11,0.39,6.21,1.17,9.23c0,0,0.14,0.55,0.16,0.63c2.65,9.97,8.18,18.93,15.69,25.84
			c-7.72,7.12-13.32,16.41-15.89,26.85l-0.09,0.36c-0.7,2.85-1.05,5.78-1.05,8.72v91.61c0,20.35,16.5,36.85,36.85,36.85h48.98
			c-1.57,12.59,0,26.89,8.24,42.04c10,18.38,27.58,32.21,48.17,37.92c7.01,1.96,14.26,2.95,21.55,2.95
			c13.99,0,27.64-3.68,39.48-10.64c17.95-10.56,29.91-26.21,34.57-45.26c2.13-8.68,2.62-17.79,1.53-27.02h31.89
			c2.63,0.59,5.36,0.91,8.17,0.91h253.33c2.81,0,5.54-0.31,8.17-0.91h29.8c-1.57,12.59,0,26.89,8.24,42.05
			c10,18.38,27.57,32.21,48.21,37.93c7.01,1.95,14.25,2.94,21.51,2.94c14.02,0,27.67-3.68,39.48-10.64
			c17.92-10.54,29.88-26.18,34.57-45.26c2.13-8.68,2.62-17.78,1.52-27.02h50.79c5.2,0,10.15-1.08,14.63-3.02h32.47
			c-2.29,12.96-1.34,27.98,7.32,43.9c13.2,24.29,38.97,39.37,67.24,39.37c13.44,0,26.56-3.54,37.96-10.25
			c17.25-10.15,28.73-25.17,33.21-43.42c2.32-9.46,2.62-19.47,0.96-29.61h38.83c2.63,0.6,5.37,0.91,8.18,0.91h87
			c3.2,0,6.39-0.42,9.48-1.24c10.6-2.82,20-9.09,26.77-17.57c6.95,8.7,16.63,15.03,27.62,17.74c2.89,0.71,5.86,1.07,8.83,1.07H1391
			c2.81,0,5.55-0.31,8.18-0.91h36.8c-2.29,12.96-1.34,27.97,7.32,43.9c13.2,24.29,38.97,39.37,67.24,39.37
			c13.44,0,26.56-3.54,37.96-10.24c17.25-10.15,28.74-25.16,33.22-43.42c2.33-9.46,2.62-19.47,0.96-29.61h51.66
			c20.35,0,36.85-16.5,36.85-36.85v-51.76c4.38,0.74,8.75,1.11,13.05,1.11c0,0,0,0,0,0c25.19,0,47.2-12.86,60.38-35.28
			c10.23-17.4,12.91-38.81,7.37-58.74C1746.45,467.81,1733.12,450.89,1715.42,441.29z"/>
		<g>
			<path class="st1" d="M1697.84,473.67c-15.52-8.43-29.18-1.51-43.06,6.41c-7.99,4.57-17.59,0.43-20.45-7.5v-81.65h0.96v-53.45
				h0.04v-33.07c2.86-8.2,12.9-12.37,20.96-7.35c19.74,12.29,44.14,15.09,57.55-7.73c10.87-18.5,3.87-43.88-15-54.12
				c-15.52-8.43-29.18-1.51-43.06,6.41c-7.99,4.57-17.59,0.43-20.45-7.5v-40.13h-0.04v-51.32h-0.96v0.52h-87.88
				c-2.27,0-4.5,0.76-6.21,2.26c-4.95,4.34-6.71,11.95-2.74,18.3c12.3,19.74,15.12,44.14-7.69,57.56
				c-18.5,10.88-43.88,3.9-54.14-14.97c-8.43-15.51-1.53-29.18,6.4-43.06c3.28-5.75,2.06-12.34-1.84-16.65
				c-2.05-2.27-5.05-3.44-8.1-3.44H1391l-88.56,0.91c-0.53-0.13-1.05-0.29-1.56-0.48c-8.01-3.01-12.01-12.91-7.05-20.86
				c12.29-19.74,15.09-44.14-7.73-57.55c-18.5-10.87-43.88-3.87-54.12,15c-8.43,15.52-1.51,29.18,6.41,43.05
				c4.05,7.08,1.27,15.45-4.95,19.25c-1.13,0.69-2.37,1.24-3.7,1.59l-87-0.91l-82.45,0c-3.4,0-6.67,1.47-8.78,4.13
				c-3.52,4.45-4.39,10.91-0.95,16.43c12.3,19.74,15.11,44.14-7.69,57.56c-18.5,10.88-43.88,3.9-54.14-14.97
				c-8.43-15.51-1.53-29.18,6.39-43.06c2.4-4.21,2.4-8.87,0.69-12.75c-1.98-4.52-6.58-7.34-11.52-7.34h-84.21v88.99
				c-2.86,8.2-12.9,12.37-20.95,7.35c-19.74-12.29-44.15-15.09-57.56,7.73c-10.87,18.5-3.87,43.88,15.01,54.12
				c15.51,8.43,29.18,1.51,43.05-6.41c7.99-4.57,17.59-0.43,20.45,7.5v81.65h-0.96v87c2.31,8.68,12.47,13.43,20.83,8.65
				c13.88-7.93,27.54-14.84,43.06-6.42c18.87,10.25,25.87,35.63,15,54.13c-13.41,22.82-37.81,20.02-57.55,7.73
				c-8.46-5.27-19.11-0.42-21.34,8.6v88.57h89.44c7.31,3.26,10.94,12.42,6.56,20.09c-7.92,13.88-14.82,27.55-6.39,43.06
				c10.26,18.87,35.64,25.85,54.14,14.97c22.8-13.42,19.99-37.82,7.69-57.56c-4.8-7.69-1.23-17.22,6.25-20.56h85.93v0.91h87
				c8.68-2.31,13.44-12.47,8.65-20.83c-7.92-13.88-14.84-27.54-6.41-43.06c10.24-18.87,35.62-25.87,54.12-15
				c22.82,13.41,20.02,37.81,7.73,57.55c-5.27,8.46-0.42,19.11,8.61,21.34H1391v-0.91h84.51c7.3,3.26,10.93,12.42,6.56,20.09
				c-7.93,13.88-14.83,27.55-6.4,43.06c10.26,18.87,35.64,25.85,54.14,14.97c22.81-13.42,19.99-37.82,7.69-57.56
				c-4.8-7.69-1.22-17.22,6.26-20.56h90.57v-89.51c2.86-8.2,12.9-12.37,20.96-7.35c19.74,12.29,44.14,15.09,57.55-7.73
				C1723.71,509.29,1716.71,483.91,1697.84,473.67z"/>
			<g>
				<path class="st1" d="M983.63,497.31c-3.07-11.09-10.39-20.44-20.04-25.69c-16.41-8.91-30.47-2.36-45.85,6.42
					c-2.9,1.65-6.21,1.94-9.31,0.81c-2.96-1.09-5.31-3.33-6.49-6.2v-77.68h0.96v-90.09l-0.1-0.39c-1.36-5.09-5.1-9.37-10.04-11.43
					c-4.95-2.07-10.48-1.72-15.17,0.96c-14.25,8.14-26.23,13.77-39.9,6.36c-8.21-4.45-14.43-12.47-17.08-21.96
					c-2.64-9.52-1.43-19.62,3.32-27.71c4.6-7.84,10.83-12.77,18.46-14.66c10.04-2.46,22.33,0.37,34.6,8.01
					c4.73,2.95,10.4,3.45,15.54,1.36c5.13-2.09,8.97-6.49,10.28-11.8l0.09-0.36v-91.61h-91.43c-2.58-1.33-4.57-3.67-5.5-6.51
					c-0.98-2.99-0.65-6.16,0.93-8.93c8.77-15.38,15.32-29.44,6.4-45.85c-5.25-9.66-14.62-16.96-25.69-20.03
					c-11.11-3.07-22.94-1.63-32.45,3.96c-9.31,5.47-15.18,12.98-17.47,22.27c-2.86,11.67,0.25,25.62,8.77,39.29
					c1.74,2.77,2.16,6,1.23,9.08c-0.9,2.94-2.91,5.35-5.56,6.72h-81.91v-0.63H406.9v0.63h-80.3c-2.59-1.33-4.58-3.67-5.51-6.51
					c-0.97-2.99-0.65-6.16,0.93-8.93c8.78-15.38,15.32-29.44,6.4-45.85c-5.25-9.66-14.62-16.96-25.69-20.03
					c-11.11-3.07-22.93-1.64-32.44,3.96c-9.32,5.47-15.19,12.98-17.48,22.27c-2.86,11.67,0.26,25.62,8.78,39.29
					c1.73,2.77,2.16,6,1.22,9.08c-0.9,2.94-2.91,5.35-5.56,6.72h-92.55v91.63c-1.18,2.94-3.65,5.29-6.69,6.36
					c-3.21,1.13-6.58,0.76-9.51-1.07c-13.67-8.51-27.62-11.62-39.29-8.75c-9.29,2.29-16.78,8.17-22.26,17.48
					c-5.6,9.52-7.03,21.34-3.94,32.45c3.09,11.07,10.39,20.44,20.06,25.68c16.41,8.91,30.47,2.36,45.84-6.42
					c2.9-1.65,6.21-1.94,9.31-0.8c2.97,1.09,5.31,3.33,6.49,6.18v77.69h-0.96v90.08l0.1,0.39c1.36,5.1,5.11,9.37,10.04,11.43
					c4.95,2.07,10.49,1.73,15.17-0.96c14.25-8.14,26.24-13.77,39.9-6.36c8.21,4.47,14.45,12.47,17.08,21.96
					c2.65,9.52,1.43,19.62-3.32,27.71c-4.6,7.85-10.81,12.78-18.45,14.66c-10.05,2.48-22.35-0.37-34.6-8.01
					c-4.74-2.95-10.4-3.43-15.54-1.36c-5.14,2.09-8.98,6.49-10.29,11.8l-0.09,0.36v91.61h91.43c2.59,1.33,4.58,3.67,5.5,6.51
					c0.98,2.99,0.65,6.16-0.93,8.93c-8.77,15.38-15.32,29.45-6.4,45.85c5.25,9.66,14.62,16.96,25.71,20.03
					c3.83,1.07,7.76,1.59,11.65,1.59c7.35,0,14.57-1.89,20.79-5.55c9.31-5.47,15.19-12.98,17.47-22.27
					c2.86-11.67-0.25-25.62-8.77-39.28c-1.73-2.79-2.16-6.01-1.22-9.1c0.9-2.94,2.9-5.35,5.55-6.72h81.82v0.91h253.33v-0.91h80.4
					c2.59,1.33,4.57,3.67,5.5,6.51c0.98,2.99,0.65,6.16-0.93,8.93c-8.77,15.38-15.32,29.44-6.4,45.85
					c5.25,9.66,14.62,16.96,25.69,20.03c11.11,3.09,22.94,1.64,32.45-3.96c9.31-5.47,15.18-12.98,17.47-22.27
					c2.86-11.67-0.25-25.62-8.77-39.28c-1.74-2.79-2.17-6.01-1.23-9.1c0.9-2.94,2.91-5.35,5.56-6.72h92.55v-91.63
					c1.18-2.92,3.65-5.29,6.69-6.36c3.21-1.13,6.58-0.75,9.51,1.07c13.67,8.51,27.62,11.62,39.29,8.75
					c9.31-2.29,16.8-8.17,22.27-17.48C985.29,520.25,986.72,508.41,983.63,497.31z M895.84,542.7v86.6h-87.79l-0.6,0.26
					c-4.53,2.03-7.98,5.95-9.46,10.76c-1.47,4.8-0.8,9.82,1.88,14.11c7.65,12.26,10.5,24.55,8.03,34.6
					c-1.87,7.64-6.79,13.86-14.63,18.46c-8.09,4.77-18.19,5.97-27.71,3.33c-9.51-2.63-17.51-8.85-21.97-17.07
					c-7.43-13.66-1.79-25.64,6.33-39.9c2.45-4.28,2.96-9.21,1.43-13.86c-1.53-4.67-4.94-8.47-9.37-10.44l-0.6-0.26h-87.84v0.9
					H412.43v-0.9h-89.27l-0.58,0.26c-4.54,2.03-7.99,5.95-9.47,10.76c-1.46,4.8-0.8,9.82,1.89,14.11
					c7.64,12.26,10.49,24.55,8.01,34.6c-1.87,7.64-6.79,13.86-14.63,18.46c-8.09,4.77-18.19,5.97-27.71,3.33
					c-9.49-2.63-17.51-8.85-21.97-17.07c-7.43-13.66-1.79-25.64,6.35-39.9c2.44-4.28,2.95-9.21,1.42-13.86
					c-1.52-4.67-4.94-8.47-9.37-10.44l-0.59-0.26h-86.66v-84.76c0.92-3.25,3.35-5.95,6.56-7.25c3.31-1.34,6.97-1.02,10.02,0.88
					c13.67,8.51,27.62,11.62,39.29,8.75c9.29-2.29,16.78-8.16,22.26-17.48c5.59-9.51,7.03-21.34,3.94-32.44
					c-3.09-11.09-10.39-20.44-20.06-25.69c-16.4-8.91-30.47-2.36-45.84,6.42c-3.04,1.73-6.59,1.95-9.79,0.62
					c-3.07-1.28-5.44-3.89-6.38-7.01v-83.16h0.96V303.3l-0.19-0.51c-1.72-4.78-5.48-8.54-10.31-10.31c-4.74-1.74-10-1.31-14.43,1.23
					c-14.25,8.14-26.24,13.77-39.9,6.36c-8.22-4.45-14.45-12.47-17.08-21.96c-2.65-9.52-1.43-19.62,3.32-27.71
					c4.6-7.84,10.81-12.77,18.45-14.64c10.05-2.48,22.35,0.36,34.6,8c4.47,2.77,9.85,3.37,14.77,1.64
					c5.01-1.77,8.87-5.61,10.6-10.55l0.17-0.5v-86.59h87.78l0.6-0.27c4.54-2.02,7.99-5.95,9.46-10.76c1.47-4.8,0.8-9.82-1.88-14.11
					c-7.64-12.26-10.49-24.54-8.03-34.6c1.88-7.64,6.81-13.85,14.64-18.46c8.09-4.75,18.18-5.97,27.71-3.33
					c9.49,2.64,17.49,8.86,21.96,17.07c7.43,13.66,1.8,25.66-6.33,39.9c-2.45,4.29-2.95,9.21-1.43,13.86
					c1.53,4.67,4.94,8.47,9.37,10.44l0.6,0.27H413v-0.63h241.11v0.63h89.36l0.6-0.27c4.53-2.02,7.98-5.95,9.46-10.76
					c1.47-4.8,0.8-9.82-1.88-14.11c-7.64-12.26-10.5-24.54-8.03-34.6c1.87-7.64,6.79-13.85,14.63-18.46
					c8.09-4.75,18.19-5.97,27.72-3.33c9.49,2.64,17.49,8.86,21.96,17.07c7.43,13.66,1.79,25.66-6.33,39.9
					c-2.45,4.29-2.96,9.21-1.43,13.86c1.53,4.67,4.94,8.47,9.37,10.44l0.6,0.27h86.66v84.74c-0.92,3.25-3.36,5.95-6.57,7.25
					c-3.31,1.34-6.96,1.02-10.02-0.88c-13.66-8.51-27.62-11.62-39.29-8.75c-9.29,2.29-16.79,8.17-22.26,17.48
					c-5.59,9.51-7.03,21.34-3.93,32.45c3.07,11.07,10.38,20.44,20.04,25.68c16.41,8.91,30.47,2.36,45.85-6.42
					c3.02-1.73,6.58-1.95,9.78-0.62c3.07,1.28,5.45,3.89,6.39,7.01v83.16h-0.96v84.89l0.17,0.5c1.73,4.78,5.49,8.54,10.31,10.31
					c4.75,1.75,10.02,1.31,14.45-1.23c9.58-5.47,18.14-9.82,26.88-9.82c4.24,0,8.55,1.03,13.01,3.46
					c8.22,4.47,14.45,12.47,17.08,21.96c2.65,9.52,1.44,19.62-3.31,27.71c-4.62,7.84-10.83,12.78-18.46,14.66
					c-10.05,2.46-22.35-0.37-34.6-8.01c-4.47-2.77-9.84-3.37-14.77-1.64c-5,1.77-8.87,5.61-10.6,10.56L895.84,542.7z"/>
				<path class="st0" d="M977.75,498.94c-2.64-9.49-8.86-17.49-17.08-21.96c-4.47-2.43-8.77-3.46-13.01-3.46
					c-8.73,0-17.29,4.34-26.88,9.82c-4.43,2.54-9.69,2.99-14.45,1.23c-4.83-1.78-8.59-5.54-10.31-10.31l-0.17-0.5v-84.89h0.96V305.7
					c-0.95-3.11-3.32-5.72-6.39-7.01c-3.2-1.33-6.76-1.11-9.78,0.62c-15.38,8.78-29.44,15.33-45.85,6.42
					c-9.67-5.24-16.97-14.61-20.04-25.68c-3.1-11.11-1.65-22.94,3.93-32.45c5.47-9.31,12.96-15.19,22.26-17.48
					c11.67-2.87,25.63,0.24,39.29,8.75c3.06,1.9,6.71,2.23,10.02,0.88c3.21-1.31,5.65-4.01,6.57-7.25v-84.74h-86.66l-0.6-0.27
					c-4.43-1.97-7.84-5.77-9.37-10.44c-1.53-4.65-1.02-9.57,1.43-13.86c8.13-14.25,13.76-26.24,6.33-39.9
					c-4.47-8.21-12.47-14.43-21.96-17.07c-9.53-2.64-19.63-1.42-27.72,3.33c-7.84,4.62-12.77,10.82-14.63,18.46
					c-2.48,10.07,0.39,22.35,8.03,34.6c2.67,4.29,3.35,9.31,1.88,14.11c-1.48,4.82-4.93,8.75-9.46,10.76l-0.6,0.27h-89.36v-0.63H413
					v0.63h-87.76l-0.6-0.27c-4.43-1.97-7.84-5.77-9.37-10.44c-1.52-4.65-1.02-9.57,1.43-13.86c8.14-14.25,13.76-26.24,6.33-39.9
					c-4.47-8.21-12.47-14.43-21.96-17.07c-9.53-2.64-19.62-1.42-27.71,3.33c-7.84,4.62-12.77,10.82-14.64,18.46
					c-2.46,10.07,0.39,22.35,8.03,34.6c2.67,4.29,3.35,9.31,1.88,14.11c-1.47,4.82-4.91,8.75-9.46,10.76l-0.6,0.27H170.8v86.59
					l-0.17,0.5c-1.73,4.94-5.59,8.78-10.6,10.55c-4.91,1.73-10.3,1.13-14.77-1.64c-12.26-7.64-24.55-10.48-34.6-8
					c-7.64,1.88-13.85,6.81-18.45,14.64c-4.75,8.09-5.97,18.19-3.32,27.71c2.64,9.49,8.86,17.51,17.08,21.96
					c13.66,7.42,25.66,1.78,39.9-6.36c4.43-2.54,9.69-2.97,14.43-1.23c4.84,1.78,8.6,5.54,10.31,10.31l0.19,0.51v84.88h-0.96v83.16
					c0.95,3.11,3.31,5.72,6.38,7.01c3.2,1.33,6.76,1.11,9.79-0.62c15.37-8.78,29.44-15.33,45.84-6.42
					c9.67,5.25,16.97,14.61,20.06,25.69c3.09,11.1,1.64,22.93-3.94,32.44c-5.47,9.32-12.96,15.19-22.26,17.48
					c-11.67,2.87-25.62-0.24-39.29-8.75c-3.05-1.9-6.71-2.23-10.02-0.88c-3.21,1.31-5.64,4.01-6.56,7.25v84.76h86.66l0.59,0.26
					c4.43,1.97,7.85,5.77,9.37,10.44c1.53,4.65,1.02,9.58-1.42,13.86c-8.14,14.26-13.77,26.24-6.35,39.9
					c4.47,8.22,12.48,14.45,21.97,17.07c9.52,2.64,19.62,1.43,27.71-3.33c7.84-4.6,12.77-10.82,14.63-18.46
					c2.48-10.05-0.37-22.35-8.01-34.6c-2.69-4.29-3.35-9.31-1.89-14.11c1.48-4.82,4.93-8.73,9.47-10.76l0.58-0.26h89.27v0.9h241.11
					v-0.9h87.84l0.6,0.26c4.43,1.97,7.84,5.77,9.37,10.44c1.53,4.65,1.02,9.58-1.43,13.86c-8.12,14.26-13.76,26.24-6.33,39.9
					c4.47,8.22,12.47,14.45,21.97,17.07c9.52,2.64,19.62,1.43,27.71-3.33c7.84-4.6,12.77-10.82,14.63-18.46
					c2.48-10.05-0.37-22.35-8.03-34.6c-2.67-4.29-3.35-9.31-1.88-14.11c1.48-4.82,4.93-8.73,9.46-10.76l0.6-0.26h87.79v-86.6
					l0.16-0.49c1.73-4.95,5.6-8.8,10.6-10.56c4.93-1.73,10.3-1.13,14.77,1.64c12.26,7.64,24.55,10.48,34.6,8.01
					c7.64-1.88,13.85-6.82,18.46-14.66C979.19,518.57,980.4,508.46,977.75,498.94z"/>
				<g>
					<g>
						<path d="M345.29,359.83c-3.81-3.82-8.49-6.1-14.01-6.84h-19.52v68.81h8.9v-22.01h8.13c6.46,0,11.96-2.29,16.51-6.87
							c4.57-4.57,6.84-10.09,6.84-16.57C352.14,369.92,349.86,364.42,345.29,359.83z M338.96,386.59
							c-2.82,2.82-6.22,4.24-10.18,4.24h-8.13v-28.9h8.13c3.96,0,7.35,1.41,10.18,4.22c2.82,2.81,4.23,6.21,4.23,10.19
							C343.19,380.36,341.78,383.77,338.96,386.59z"/>
						<path d="M361.85,352.98v68.81h8.91v-68.81H361.85z"/>
						<path d="M397.14,412.84l34.63-59.86h-48v8.91h32.61l-34.58,59.9h50.8v-8.95H397.14z"/>
						<path d="M451.75,412.84l34.61-59.86h-47.99v8.91h32.6l-34.58,59.9h50.81v-8.95H451.75z"/>
						<path d="M519.32,352.98h-4.82l-25.03,68.81h9.51l8.81-24.34h18.24l8.86,24.34h9.46L519.32,352.98z M511.06,388.56l5.85-16.14
							l5.9,16.14H511.06z"/>
						<path d="M604.96,352.98l-22.23,27.5l-22.31-27.5h-8.14v68.81h8.91v-52.48l21.54,26.08l21.46-26.08v52.48h8.9v-68.81H604.96z"
							/>
						<path d="M648.16,352.98h-4.82l-25.02,68.81h9.49l8.82-24.34h18.23l8.87,24.34h9.46L648.16,352.98z M639.91,388.56l5.85-16.14
							l5.89,16.14H639.91z"/>
						<path d="M725.82,352.98v49.11l-36.68-49.11h-8.12v68.81h8.9v-49.71l37.08,49.71h7.78v-68.81H725.82z"/>
					</g>
					<g>
						<path d="M350.68,321.52v-1.08h-9.61v19.22h9.61v-1.08h-8.52v-7.99h8.52v-1.08h-8.52v-7.99H350.68z"/>
						<path d="M362.44,330.16c-1.06-1.05-2.34-1.82-3.88-2.31c-0.96-0.45-1.72-0.95-2.25-1.48c-0.6-0.58-0.88-1.29-0.88-2.12
							c0-0.83,0.29-1.53,0.88-2.12c0.59-0.58,1.28-0.87,2.1-0.87c0.83,0,1.53,0.29,2.12,0.86c0.34,0.34,0.57,0.7,0.71,1.08
							l0.98-0.39c-0.17-0.52-0.47-1.01-0.92-1.43c-0.8-0.78-1.75-1.18-2.89-1.18c-1.12,0-2.09,0.4-2.87,1.19
							c-0.8,0.8-1.19,1.74-1.19,2.85c0,1.13,0.4,2.09,1.19,2.89c0.78,0.8,1.87,1.42,3.23,1.88c1.16,0.47,2.14,1.09,2.92,1.89
							c0.91,0.91,1.36,2,1.36,3.27c0,1.28-0.45,2.38-1.36,3.27c-0.91,0.91-1.99,1.37-3.28,1.37c-1.27,0-2.35-0.46-3.26-1.37
							c-0.78-0.77-1.23-1.68-1.34-2.72l-1.01,0.37c0.17,1.18,0.7,2.21,1.59,3.1c1.12,1.12,2.45,1.68,4.02,1.68
							c1.58,0,2.92-0.55,4.03-1.67c1.11-1.11,1.67-2.45,1.67-4.03C364.11,332.62,363.55,331.27,362.44,330.16z"/>
						<path d="M365.31,320.43v1.08h4.86v18.14h1.08v-18.14h4.87v-1.08H365.31z"/>
						<path d="M387.05,323.08c-1.74-1.75-4.19-2.63-7.35-2.63h-0.09v-0.02h-1.08v19.22h1.08v-0.02h0.09c3.16,0,5.61-0.87,7.35-2.61
							c1.92-1.93,2.89-4.26,2.89-6.97C389.94,327.33,388.97,325.01,387.05,323.08z M386.27,336.24c-1.53,1.54-3.72,2.3-6.57,2.3
							h-0.09v-16.97h0.09c2.85,0,5.04,0.76,6.57,2.29c1.7,1.72,2.56,3.78,2.56,6.2S387.97,334.53,386.27,336.24z"/>
						<path d="M392.83,337.99c-0.21-0.21-0.47-0.31-0.77-0.31c-0.3,0-0.55,0.1-0.76,0.31c-0.21,0.21-0.32,0.46-0.32,0.76
							c0,0.3,0.11,0.56,0.32,0.77c0.21,0.2,0.46,0.31,0.76,0.31c0.3,0,0.56-0.11,0.77-0.31c0.21-0.21,0.31-0.47,0.31-0.77
							C393.15,338.45,393.05,338.2,392.83,337.99z"/>
						<path d="M662.7,334.98c1.28-0.96,2.43-1.82,3.43-2.58c1.02-0.76,1.9-1.54,2.65-2.35c1.09-1.18,1.64-2.56,1.64-4.14
							c0-1.58-0.56-2.94-1.68-4.06c-1.11-1.12-2.46-1.68-4.06-1.68c-1.57,0-2.92,0.56-4.04,1.69c-0.88,0.9-1.43,1.94-1.61,3.15
							l1.08,0.4c0.12-1.07,0.56-1.98,1.33-2.75c0.91-0.9,1.98-1.34,3.24-1.34c1.28,0,2.36,0.45,3.26,1.34
							c0.91,0.9,1.34,1.98,1.34,3.25c0,1.27-0.44,2.38-1.31,3.33c-0.87,0.96-1.82,1.82-2.84,2.58c-1.01,0.76-2.19,1.64-3.51,2.64
							c-1.33,0.98-2.18,2.72-2.54,5.2h11.32v-1.08h-10.1C660.63,337.13,661.43,335.92,662.7,334.98z"/>
						<path d="M684.42,322.38c-1.29-1.29-2.85-1.94-4.67-1.94c-1.83,0-3.38,0.65-4.67,1.94c-1.29,1.28-1.94,2.84-1.94,4.65v6.37
							c0,1.82,0.65,3.37,1.94,4.67c1.28,1.28,2.84,1.93,4.67,1.93c1.82,0,3.37-0.65,4.67-1.93c1.28-1.29,1.92-2.85,1.92-4.67v-6.37
							C686.34,325.21,685.7,323.66,684.42,322.38z M685.21,333.4c0,1.51-0.54,2.79-1.61,3.86c-1.06,1.06-2.35,1.59-3.85,1.59
							c-1.52,0-2.8-0.54-3.87-1.59c-1.06-1.07-1.59-2.35-1.59-3.86v-6.37c0-1.51,0.53-2.79,1.59-3.84c1.07-1.07,2.35-1.59,3.87-1.59
							c1.49,0,2.79,0.52,3.85,1.59c1.07,1.06,1.61,2.34,1.61,3.84V333.4z"/>
						<path d="M695.13,320.43l-1.48,1.9h1.14v17.32h1.07v-19.22H695.13z"/>
						<path d="M714.37,330.05c-0.76-0.82-1.73-1.42-2.87-1.8c0.52-0.22,1.09-0.66,1.7-1.31c0.61-0.65,0.91-1.54,0.91-2.69
							c0-1.11-0.4-2.07-1.19-2.87c-0.8-0.81-1.77-1.21-2.91-1.21h-0.44c-1.15,0-2.12,0.4-2.91,1.21s-1.19,1.77-1.19,2.87
							c0,1.14,0.3,2.04,0.91,2.69c0.61,0.65,1.18,1.08,1.7,1.31c-1.14,0.39-2.1,0.98-2.86,1.8c-1.11,1.17-1.65,2.55-1.65,4.13
							s0.56,2.94,1.68,4.06c1.12,1.12,2.48,1.68,4.06,1.68c0.16,0,0.34,0,0.5-0.01c0.16,0.01,0.32,0.01,0.49,0.01
							c1.59,0,2.94-0.56,4.06-1.68s1.68-2.48,1.68-4.06S715.46,331.22,714.37,330.05z M707.45,326.37
							c-0.56-0.58-0.83-1.29-0.83-2.12s0.29-1.52,0.86-2.09c0.58-0.57,1.28-0.86,2.09-0.86c0.07,0,0.14,0,0.21,0.01h0.02
							c0.06-0.01,0.12-0.01,0.2-0.01c0.82,0,1.52,0.29,2.09,0.86c0.57,0.57,0.86,1.27,0.86,2.09s-0.27,1.53-0.82,2.12
							c-0.56,0.6-1.08,0.98-1.56,1.17c-0.24,0.09-0.5,0.15-0.78,0.2c-0.29-0.05-0.56-0.11-0.8-0.2
							C708.52,327.35,708,326.97,707.45,326.37z M713.54,337.44c-0.9,0.9-1.98,1.34-3.26,1.34c-0.16,0-0.32-0.01-0.47-0.02h-0.02
							c-0.16,0.01-0.32,0.02-0.49,0.02c-1.27,0-2.35-0.45-3.25-1.34c-0.91-0.91-1.36-1.99-1.36-3.26c0-1.27,0.44-2.38,1.32-3.33
							c0.85-0.92,2.1-1.56,3.78-1.89c1.67,0.34,2.94,0.97,3.78,1.89c0.87,0.96,1.31,2.07,1.31,3.33
							C714.88,335.45,714.43,336.53,713.54,337.44z"/>
					</g>
					<path class="st1" d="M672.81,241.28l-48.46,107.91l-10.12-4.52l44.78-99.65c-9.66-6.35-38-23.32-77.88-32.85
						c-44.64-10.65-113.26-13.85-188.51,30.37l42.22,96.81l-10.15,4.43L378.6,238.08l4.12-2.51
						c80.28-48.89,153.86-45.5,201.45-34.04c51.56,12.41,83.74,36.11,85.08,37.1L672.81,241.28z"/>
					<polygon class="st1" points="586.31,435.04 524.67,573.13 464.35,434.75 474.51,430.32 524.8,545.69 576.2,430.52 					"/>
					<path class="st2" d="M524.91,330.45c-6.21,1.32-13.56,2.71-17.87-1.95c-3.97-4.31-0.02-10.74,1.73-15.94
						c3.19-9.49,9.26-17.53,16.35-27.73c-12.93,5.25-19.7,13.1-24.98,22.61c-1.73,3.07-1.99,8.17-7.71,6.67
						c-4.8-1.24-7.81-4.53-8.6-9.26c-0.59-3.46-0.59-7.15-0.1-10.64c3.1-22.25,22.43-41.02,44.69-43.59
						c9.18-1.06,18.24-2.6,26.69-6.64c2,6.21,0.26,22.11,2.05,28.05C563.39,297.96,548.23,325.47,524.91,330.45z"/>
					<path class="st3" d="M465.78,260.29c-0.12,11.1-8.86,19.48-20.07,19.25c-11.01-0.24-19.81-9.38-19.41-20.18
						c0.37-10.46,9.26-19.21,19.58-19.3C456.68,239.96,465.9,249.34,465.78,260.29z"/>
					<path class="st3" d="M632.26,259.12c0.02,11.56-8.16,20.11-19.11,19.97c-10.91-0.12-19.42-9.1-19.3-20.32
						c0.14-11.73,8.15-18.66,21.89-18.91C624.96,239.7,632.24,248.19,632.26,259.12z"/>
					<path class="st3" d="M527.82,470.92c-6.59,0.16-12.39-5.11-11.96-11.48c0.46-6.79,4.69-11.53,11.27-11.32
						c5.85,0.19,11.35,3.26,11.82,10.61C539.39,465.47,534.54,470.76,527.82,470.92z"/>
					<path class="st3" d="M602.54,324.42c-5.7-0.55-9.67-4.14-9.87-11.2c-0.17-6.49,5.55-12.29,11.81-11.6
						c6.58,0.75,10.78,4.68,11.22,11.46C616.14,319.59,610.55,324.61,602.54,324.42z"/>
					<path class="st3" d="M583.17,248.97c-5.71-0.55-9.68-4.14-9.88-11.2c-0.17-6.49,5.55-12.29,11.82-11.6
						c6.57,0.73,10.78,4.68,11.21,11.46C596.75,244.14,591.17,249.16,583.17,248.97z"/>
					<path class="st3" d="M494.48,244.36c-0.06,6.37-5.24,11.27-11.92,11.07c-6.25-1.08-10.18-4.07-10.29-11.71
						c-0.12-8.95,6.37-10.71,12.19-10.6C490.13,233.24,494.54,237.62,494.48,244.36z"/>
					<path class="st3" d="M510.95,233.64c-0.16,2.44-1.74,3.66-4.04,3.71c-2.79,0.06-4.39-1.52-4.37-4.28
						c0.02-2.82,1.73-4.16,4.5-4.13C509.97,229.17,511.12,230.92,510.95,233.64z"/>
					<path class="st3" d="M557.32,446.15c-0.15,2.43-1.73,3.66-4.03,3.71c-2.79,0.05-4.39-1.52-4.37-4.29
						c0.01-2.82,1.72-4.16,4.5-4.12C556.34,441.67,557.5,443.44,557.32,446.15z"/>
					<path class="st3" d="M499.88,442c-0.16,2.43-1.74,3.66-4.04,3.71c-2.79,0.05-4.39-1.52-4.37-4.29c0.02-2.82,1.73-4.14,4.5-4.12
						C498.88,437.53,500.05,439.28,499.88,442z"/>
					<path class="st3" d="M459.73,313.94c-0.15,2.43-1.73,3.66-4.03,3.71c-2.8,0.05-4.4-1.52-4.37-4.29
						c0.01-2.82,1.72-4.14,4.49-4.12C458.74,309.47,459.9,311.23,459.73,313.94z"/>
					<path class="st3" d="M415.43,249.56c-0.16,2.44-1.74,3.66-4.04,3.71c-2.79,0.06-4.39-1.52-4.37-4.29
						c0.02-2.82,1.73-4.14,4.5-4.12C414.44,245.1,415.59,246.85,415.43,249.56z"/>
					<path class="st3" d="M529.79,516.96c-0.25,2.72-2.13,4.07-4.88,3.78c-2.38-0.25-3.66-1.79-3.7-4.11
						c-0.04-2.85,1.8-4.08,4.42-4.48C528.01,512.9,530.05,514.16,529.79,516.96z"/>
					<path class="st3" d="M539.14,492.8c-0.68,2.74-2.65,3.58-5.24,3.07c-2.26-0.44-3.7-2.02-3.3-4.32
						c0.43-2.54,2.23-4.18,4.93-3.83C538.27,488.07,539.38,490,539.14,492.8z"/>
					<path class="st3" d="M590.25,289.38c-0.73,2.44-1.97,4.44-4.88,4.13c-2.38-0.24-3.65-1.93-3.65-4.23
						c-0.01-3.1,2.43-3.91,4.81-4.02C589.09,285.14,589.87,287.21,590.25,289.38z"/>
					<path class="st3" d="M513.86,481.36c-0.03,2.59-1.24,3.94-3.66,4.04c-2.72,0.11-4.54-1.23-4.68-3.94
						c-0.14-2.68,1.62-4.59,4.12-4.68C512.43,476.67,512.93,479.5,513.86,481.36z"/>
				</g>
				<g>
					<g>
						<path class="st4" d="M1219.45,503.68c0.53,0.25,1.01,0.37,1.46,0.37c0.36,0,0.7-0.08,1-0.25c0.67-0.37,1.09-1.19,1.33-2.56
							c0.17-0.77,0.2-1.43,0.12-1.99c-0.1-0.61-0.35-1.14-0.75-1.57c-0.37-0.39-0.9-0.75-1.69-1.1c-0.24-0.09-0.49-0.14-0.74-0.14
							c-0.57,0-1.11,0.23-1.6,0.7c-0.62,0.59-0.99,1.45-1.11,2.57C1217.26,502.22,1218.45,503.27,1219.45,503.68z"/>
						<path class="st4" d="M1262.93,493.13c-1.27-0.96-2.72-1.74-4.32-2.3c-1.57-0.55-3.06-0.92-4.44-1.09
							c-0.75-0.1-1.61-0.14-2.55-0.14c-0.8,0-1.67,0.03-2.62,0.11c-2.02,0.14-3.65,0.32-4.86,0.51c-1.19,0.2-2.9,0.49-5.13,0.87
							c-1.1,0.2-2.03,0.35-2.78,0.49c0.26-3.5,0.74-6.91,1.44-10.14c0.19-0.89,0.07-1.67-0.37-2.31c-0.42-0.61-0.96-1.02-1.66-1.23
							c-0.26-0.07-0.51-0.1-0.77-0.1c-0.5,0-1,0.13-1.47,0.39c-0.73,0.39-1.2,0.97-1.39,1.69c-0.98,3.27-1.58,7.43-1.75,12.37
							c-3.28,0-5.7-0.6-7.16-1.78c-0.38-0.32-1.02-0.6-2-0.89c-0.53-0.14-1.02-0.2-1.44-0.2c-0.74,0-1.38,0.21-1.83,0.67
							c-0.81,0.96-0.79,2.08,0.25,2.99c2.42,2.15,5.62,3.24,9.82,3.24c0.59,0,1.52-0.02,1.52-0.07v0.73
							c0,6.66,0.65,12.39,1.61,17.11c-0.84,1.85-1.82,3.56-2.87,5.09l-0.15,0.25c-0.78,1.11-1.55,1.97-2.24,2.57
							c-0.97,0.82-1.33,0.83-1.35,0.83c-0.04,0-0.12-0.07-0.21-0.18c-0.52-0.57-1.21-1.96-1.55-5.32c-0.28-2.82-0.31-5.31-0.08-7.43
							c0.06-0.59-0.03-1.23-0.26-1.9c-0.23-0.65-0.56-1.23-0.99-1.71c-0.5-0.56-1.07-0.88-1.7-0.95c-0.09-0.01-0.18-0.01-0.27-0.01
							c-0.56,0-1.06,0.19-1.49,0.56c-0.48,0.41-0.79,1.04-0.92,1.9c-0.2,1.9-0.3,3.94-0.33,6.09c-0.03,2.17,0.2,4.41,0.67,6.63
							c0.49,2.33,1.23,4.02,2.25,5.14c0.97,1.09,2.12,1.65,3.41,1.65c2.52,0,5.08-1.67,7.63-5c0.18-0.28,0.4-0.59,0.63-0.92
							l0.15-0.29c0.33-0.49,0.63-1.05,0.95-1.57c2.13,6.4,5.76,9.67,10.16,9.67c1.12,0,2.23-0.36,3.3-1.08
							c1.01-0.66,1.87-1.44,2.57-2.3c0.69-0.85,1.41-2.02,2.2-3.6c0.75-1.5,1.32-2.73,1.69-3.65c0.37-0.89,0.86-2.14,1.46-3.68
							c0.22-0.43,0.35-0.74,0.4-0.9c0.16-0.47,0.14-0.96-0.06-1.42c-0.2-0.48-0.56-0.84-1.04-1.04c-0.24-0.1-0.49-0.16-0.73-0.16
							c-0.26,0-0.5,0.06-0.73,0.16c-0.47,0.21-0.8,0.59-0.92,0.98c-0.11,0.21-0.24,0.52-0.39,0.94c-0.95,2.42-1.74,4.31-2.36,5.6
							c-0.38,0.75-0.69,1.36-0.95,1.8c-0.25,0.45-0.59,0.97-1.06,1.6c-0.42,0.57-0.83,1.01-1.29,1.29c-0.4,0.26-0.74,0.38-1.17,0.38
							c-2.38,0-3.97-2.96-5.27-8.82c-1.1-4.85-1.23-11.17-1.23-18.77v-0.99c0-0.16,1.72-0.38,3.2-0.69c2.08-0.34,3.33-0.61,4.45-0.8
							c1.09-0.19,2.54-0.36,4.39-0.5c1-0.08,1.89-0.11,2.7-0.11c0.66,0,1.25,0.02,1.78,0.08c1.15,0.12,2.39,0.4,3.71,0.83
							c1.29,0.43,2.44,1.04,3.36,1.74c0.34,0.34,0.76,0.52,1.21,0.52c0.57,0,1.08-0.25,1.48-0.72
							C1263.97,494.94,1263.87,493.9,1262.93,493.13z"/>
						<path class="st4" d="M1256.37,477.55c-0.25,0.83-0.57,1.62-0.91,2.29c-0.25,0.31-0.5,0.83-0.29,1.6
							c0.18,0.67,0.62,1.09,1.3,1.21l0.31,0.01c1.27,0,1.75-0.56,1.88-0.93c1.41-2.57,2.12-5.12,2.12-7.64
							c-0.05-0.6-0.14-1.07-0.25-1.41c-0.14-0.43-0.41-0.81-0.8-1.13c-0.32-0.26-0.77-0.53-1.43-0.82
							c-0.24-0.09-0.49-0.14-0.73-0.14c-0.58,0-1.11,0.24-1.6,0.71c-0.62,0.59-1,1.45-1.12,2.58
							C1254.72,475.99,1255.52,477.03,1256.37,477.55z"/>
						<path class="st4" d="M1285.58,511.66l-1.62-0.99l-0.99,1.6c-0.19,0.29-0.62,0.77-1.66,1.38c-0.9,0.53-1.74,0.95-2.5,1.25
							c-0.77,0.3-1.89,0.73-3.3,1.23c-0.98-0.61-2.46-1.11-4.5-1.53c-0.93-0.18-1.6-0.35-2.02-0.51c-0.42-0.15-0.62-0.3-0.71-0.4
							c-0.05-0.05-0.13-0.16-0.13-0.41c0-1.29,0.44-2.32,1.37-3.2c0.93-0.87,1.79-1.31,2.59-1.31c1.31,0,1.86,0.47,1.91,0.58
							c0.11,0.29,0.44,0.66,0.44,1.24v0.1l-0.26,0.09c0.03,0.13-0.04,0.29-0.04,0.47c0,0.49,0.08,0.95,0.44,1.32
							c0.37,0.37,0.73,0.55,1.23,0.55c0.5,0,1.25-0.19,1.61-0.55c0.36-0.36,0.77-0.83,0.77-1.35v-0.84c0-0.94-0.42-1.77-0.72-2.37
							c-0.59-1.62-2.09-3.57-5.79-3.57c-2.26,0-4.38,0.72-6.05,2.14c-2.07,1.7-3.19,3.96-3.19,6.7c0,1.95,0.9,3.48,2.83,4.55
							c0.79,0.4,2.09,0.76,3.52,1.15c-2.58,1.54-3.74,3.38-3.74,5.47v0.29c0,0.42-0.1,0.83,0.03,1.19l0.06,0.17l-0.04,0.04
							c0.3,0.71,0.75,1.31,1.41,1.8c0.63,0.47,1.28,0.8,1.98,0.99c0.67,0.19,1.33,0.29,1.98,0.29c2.1,0,4.71-0.62,6.32-1.83
							c1.68-1.27,3.27-3.06,3.27-5.42v-0.32c0-0.89-0.94-1.69-1.23-2.42c1.96-0.72,3.05-1.42,4.29-2.07c1.51-0.79,2.5-1.78,3.14-2.9
							c0.31-0.5,0.35-0.98,0.24-1.45C1286.44,512.35,1286.08,511.97,1285.58,511.66z M1272.57,524.07
							c-0.58,0.75-1.34,1.11-2.35,1.11c-0.79,0-1.34-0.16-1.56-0.43c-0.08-0.11-0.12-0.2-0.12-0.31c0-0.47,0.48-1.73,4.75-3.47
							c0.14,0.29,0.21,0.64,0.21,1.07C1273.49,522.6,1273.18,523.28,1272.57,524.07z"/>
						<path class="st4" d="M1407.47,503.68c0.53,0.25,1.01,0.37,1.45,0.37c0.37,0,0.71-0.08,1-0.25c0.67-0.37,1.09-1.19,1.34-2.56
							c0.17-0.77,0.21-1.43,0.12-1.99c-0.1-0.61-0.35-1.14-0.75-1.57c-0.37-0.39-0.9-0.75-1.69-1.1c-0.25-0.09-0.49-0.14-0.73-0.14
							c-0.58,0-1.11,0.23-1.6,0.7c-0.62,0.59-0.99,1.45-1.11,2.57C1405.27,502.22,1406.46,503.27,1407.47,503.68z"/>
						<path class="st4" d="M1479.83,511.29c-0.32,0-0.65,0.09-1.02,0.27c-3,1.63-6.31,3.79-9.39,6.42
							c-0.87-3.64-1.61-7.22-3.49-10.67v-0.09l0.18-0.15c-0.36-0.85-0.81-1.49-1.61-1.89c-0.5-0.25-0.94-0.39-1.42-0.39
							c-0.3,0-0.58,0.03-0.86,0.14c-0.76,0.27-1.28,0.72-1.57,1.41c-1.37-1.1-2.7-2.23-4.02-2.41c-0.14,0-0.3-0.65-0.64-0.65h-0.29
							c-2.98,0-5.34,1.84-6.99,4.34c-1.19,1.81-1.89,4.5-2.14,7.41c-0.73,1.62-1.6,3.37-2.65,5.07c-1.18,1.94-2.02,3-2.57,3.52
							c-0.04-0.16-0.09-0.33-0.13-0.56c-0.19-0.69-0.42-1.94-0.71-3.76c-0.59-3.61-1.15-6.11-1.7-7.66
							c-1.14-3.29-2.9-4.96-5.25-4.96c-1.42,0-2.62,0.91-3.56,2.71c-0.83,1.58-1.74,4.06-2.78,7.58l-0.03,0.2
							c-0.09,0.32-0.19,0.66-0.33,1.05c-0.49,1.75-0.89,3.13-1.23,4.15c-0.88-3.32-0.97-7.33-0.28-11.95
							c0.13-0.9-0.1-1.72-0.67-2.44c-0.56-0.71-1.26-1.13-2.06-1.26c-0.19-0.04-0.37-0.04-0.55-0.04c-0.48,0-0.92,0.16-1.32,0.42
							c-0.53,0.36-0.87,0.91-1.01,1.54c-0.41,1.83-0.65,3.63-0.75,5.41c-0.84,1.86-1.79,3.58-2.83,5.11l-0.13,0.25
							c-0.78,1.11-1.54,1.97-2.23,2.57c-0.97,0.82-1.33,0.83-1.34,0.83c-0.04,0-0.12-0.07-0.21-0.18c-0.52-0.57-1.21-1.96-1.55-5.32
							c-0.28-2.82-0.31-5.31-0.07-7.43c0.05-0.59-0.03-1.23-0.26-1.9c-0.23-0.65-0.56-1.23-0.99-1.71c-0.49-0.56-1.07-0.88-1.7-0.95
							c-0.09-0.01-0.18-0.01-0.27-0.01c-0.56,0-1.05,0.19-1.49,0.56c-0.48,0.41-0.79,1.04-0.92,1.9c-0.19,1.81-0.29,3.78-0.33,5.83
							c-0.83,2.12-1.93,4.34-3.34,6.61c-1.18,1.95-2.01,2.95-2.57,3.48c-0.04-0.16-0.09-0.36-0.13-0.58
							c-0.19-0.69-0.42-1.96-0.71-3.78c-0.6-3.62-1.16-6.12-1.7-7.67c-1.14-3.29-2.9-4.96-5.25-4.96c-1.43,0-2.62,0.91-3.56,2.71
							c-0.83,1.57-1.74,4.05-2.78,7.58l-0.02,0.13c-0.14,0.38-0.26,0.75-0.34,1.11c-0.25,0.83-0.47,1.58-0.67,2.25
							c-0.09-0.45-0.17-0.93-0.27-1.45c-0.69-3.55-1.27-6.01-1.78-7.52c-1.14-3.19-2.8-4.8-4.95-4.8c-1.03,0-1.96,0.52-2.76,1.57
							c-0.7,0.91-1.32,2.04-1.82,3.35c-0.49,1.28-1.08,3.08-1.76,5.36l-0.03,0.2c-0.14,0.35-0.25,0.74-0.34,1.12
							c-0.54,1.91-0.99,3.39-1.34,4.44c-0.28-1.11-0.49-2.36-0.6-3.74c-0.19-2.3-0.24-4.05-0.14-5.24c0.09-1.22,0.21-2.32,0.35-3.32
							c0.13-0.9-0.11-1.73-0.72-2.46c-0.59-0.71-1.3-1.13-2.07-1.24c-0.18-0.04-0.36-0.06-0.53-0.06c-0.45,0-0.88,0.16-1.27,0.42
							c-0.53,0.36-0.88,0.91-1.01,1.54c-0.55,2.41-0.81,4.79-0.82,7.12c-0.3,0.79-0.62,1.54-0.95,2.2
							c-1.96,4.22-3.39,4.85-4.08,4.85c-0.11,0-0.24-0.03-0.43-0.25c-0.58-0.64-1.35-2.18-1.72-5.9c-0.31-3.1-0.37-5.76-0.18-7.88
							c0.06-0.84-0.22-1.64-0.83-2.39c-0.62-0.74-1.34-1.16-2.13-1.23c-0.1-0.01-0.2-0.02-0.3-0.02c-0.56,0-1.46,0.15-2.06,1.13
							c-1.27-1.01-2.53-1.66-3.82-1.84c-0.18,0-0.33-0.5-0.46-0.53l-0.1-0.6h-0.46c-2.93,0-5.25,1.84-6.9,4.34
							c-1.13,1.72-1.83,4.26-2.1,6.99c-0.69,1.59-1.39,3.12-2.07,4.36l-0.09,0.29c-0.77,1.31-1.61,2.5-2.52,3.48
							c-1.13,1.21-1.73,1.36-1.93,1.36c-1.03,0-2.07-0.72-3.09-2.16c-1.13-1.59-2.16-3.88-3.06-6.8c-0.2-0.58-0.38-1.2-0.54-1.84
							c2.49-2.75,4.8-6.24,6.87-10.39c3.23-6.52,4.69-12.83,4.69-18.78c0-2.61-0.85-4.94-0.85-6.82v-0.1c0,0,0.08-0.47,0.02-0.77
							c-0.2-0.71-0.33-1.35-0.57-1.89c-1.43-3.6-3.73-5.42-6.93-5.42c-2.31,0-4.3,0.97-5.95,2.88c-0.56,0.64-1.06,1.43-1.53,2.31
							c-0.11-0.33-0.2-0.67-0.34-0.98c-1.35-2.8-3.34-4.21-5.93-4.21c-1.62,0-3.11,0.69-4.42,2.06c-1.29,1.33-2.4,3.41-3.3,6.17
							c-0.88,2.7-1.52,5.6-1.88,8.6c-0.36,2.93-0.67,6.06-0.91,9.29c-0.24,3.19-0.34,6.02-0.3,8.41c0.05,2.37,0.08,4.25,0.08,5.65
							c0,0.25,0.02,0.79,0.07,1.62c0.34,8.55,0.88,15.59,1.6,20.9c0.59,4.58,1.33,8.19,2.21,10.74c1.28,3.83,3.06,5.76,5.32,5.76
							c1.49,0,2.78-0.62,3.83-1.84c0.98-1.13,1.69-2.76,2.1-4.83c0.75-4,0.33-8.19-1.26-12.46c-1-2.77-2.41-5.08-4.17-6.89
							c1.86-0.61,3.6-1.63,5.19-3.03c0.58-0.52,1.1-1.03,1.59-1.55c2.58,7.68,5.86,11.44,10,11.44c2.69,0,5.35-1.97,7.9-5.85
							c0.25-0.35,0.5-0.75,0.75-1.18c0.4,1.12,0.94,2.12,1.65,2.93c1.31,1.42,2.92,2.15,4.79,2.15c2.04,0,3.83-1.59,5.49-4.86
							c0.39-0.77,0.8-1.72,1.22-2.86c0.53,2.62,1.38,4.56,2.57,5.86c1.12,1.23,2.51,1.85,4.14,1.85c2.57,0,4.88-1.57,6.86-4.63
							c0.28,1.16,0.62,2.3,1.06,3.42c0.43,0.97,1,1.73,1.69,2.34c0.73,0.65,1.48,1.23,2.3,1.23h0.29c0.24,0,0.5-0.2,0.97-0.3
							c0.98-0.44,1.76-1.66,2.41-3.19c0.57-1.35,1.32-3.61,2.25-6.83c0.14-0.49,0.25-0.82,0.34-1.05l0.16-0.41
							c0.61-1.97,1.13-3.39,1.55-4.23c0.21-0.4,0.37-0.68,0.48-0.86c0.13,0.27,0.3,0.72,0.52,1.44c0.28,1.09,0.67,3.02,1.15,5.72
							c0.2,1.28,0.36,2.23,0.48,2.84c0.12,0.62,0.29,1.37,0.51,2.23c0.23,0.88,0.46,1.62,0.7,2.15c0.25,0.56,0.56,1.08,0.92,1.44
							l0.37,0.46l0.09,0.02c0.45,0.27,0.96,0.56,1.48,0.56h0.35l0.58-0.36c1-0.38,1.8-1.6,2.45-3.18c0.57-1.38,1.32-3.62,2.24-6.76
							c0.14-0.48,0.26-0.83,0.36-1.11l0.15-0.44c0.6-1.97,1.12-3.36,1.55-4.17c0.2-0.41,0.36-0.69,0.48-0.89
							c0.13,0.28,0.3,0.74,0.51,1.48c0.28,1.04,0.67,2.96,1.15,5.73c0.54,3.22,1.05,5.46,1.56,6.86c0.76,2.07,2.04,2.51,2.99,2.51
							c2.5,0,5.07-2.29,7.81-6.91l0.07-0.07l0.06-0.08c0.29-0.48,0.56-0.97,0.83-1.44c0.49,2.2,1.21,3.81,2.19,4.89
							c0.97,1.09,2.12,1.65,3.41,1.65c2.52,0,5.08-1.67,7.62-5c0.19-0.28,0.4-0.59,0.63-0.92l0.15-0.29
							c0.01-0.02,0.02-0.03,0.03-0.05c0.32,1.69,0.78,3.33,1.42,4.93c0.55,1.5,1.44,2.52,2.55,3.04c0.42,0.28,0.89,0.59,1.38,0.59
							h0.22c0.27,0,0.52-0.2,0.75-0.28c0.44-0.15,0.8-0.68,1.01-0.95c0.68-0.63,1.27-1.57,1.81-3.01c0.49-1.32,1.15-3.34,2-6.11
							c0.09-0.45,0.17-0.79,0.26-1.06l0.15-0.44c0.61-1.97,1.13-3.36,1.56-4.18c0.2-0.41,0.35-0.69,0.48-0.89
							c0.13,0.28,0.31,0.74,0.51,1.49c0.29,1.03,0.67,2.96,1.15,5.72c0.54,3.22,1.05,5.46,1.56,6.86c0.75,2.07,2.08,2.51,3.06,2.51
							c2.51,0,5.06-2.29,7.74-6.91l0.07-0.07l0.05-0.08c0.01-0.01,0.02-0.03,0.03-0.05c0.39,1.13,0.92,2.13,1.65,2.95
							c1.35,1.42,2.93,2.13,4.79,2.13c2.04,0,3.69-1.59,5.3-4.85c0.73-1.42,1.06-3.51,1.93-6.24l-0.55-0.19v-0.02
							c0-0.06,0.28-0.11,0.3-0.16c0.01-0.02,0.14-0.03,0.15-0.04c1.73-0.59,0.85-1.25,1.07-1.96c0.95,3.26,2.18,6.26,2.71,8.95
							c-1.26,1.35-2.44,2.69-3.59,4.02c-6.57,8.04-9.9,16.02-9.9,23.72c0,0.2,0.03,0.38,0.08,0.57c0.07,3.33,0.8,6.05,2.16,8.07
							c1.64,2.5,4.12,3.77,7.34,3.77c2.24,0,4.19-0.84,5.79-2.49c1.38-1.44,2.52-3.47,3.38-6.03c1.42-4.33,2.14-10.29,2.14-17.74
							c0-4.5-0.47-9.33-1.39-14.37c3.41-3.05,6.81-5.5,10.12-7.29c1-0.54,1.29-1.51,0.75-2.55
							C1480.94,511.43,1480.21,511.29,1479.83,511.29z M1456.2,556.18c-0.87-1.64-1.32-3.58-1.32-5.76c0-6.79,3.04-13.95,9.04-21.27
							c0.46-0.57,0.95-1.14,1.46-1.72c0.41,3.22,0.63,6.69,0.63,10.37c0,6.27-0.67,11.39-1.99,15.23c-1.22,3.57-2.83,5.38-4.77,5.38
							C1458,558.41,1457.01,557.68,1456.2,556.18z M1454.38,522.47c-0.5-0.01-0.91-0.66-1.18-1.2c-0.47-0.95-0.72-2.43-0.72-4.28
							c0-2.58,0.42-5.26,1.23-7.01c0.7-1.51,1.46-2.95,2.12-2.95h0.3c0.48,0,0.92,0.81,1.34,1.12c0.46,0.33,1.1,1.33,1.91,2.13
							c-0.05,0.13-0.1,0.38-0.17,0.57c-1.24,4.16-2.28,7.17-3.09,8.89c-0.13,0.32-0.27,0.64-0.42,0.93
							c-0.04,0.08-0.08,0.18-0.11,0.28C1454.78,522.34,1454.37,522.46,1454.38,522.47z M1343,522.47c-0.51-0.01-0.95-0.67-1.22-1.2
							c-0.49-0.95-0.75-2.43-0.75-4.27c0-2.58,0.41-5.26,1.23-7.01c0.5-1.07,1.29-2.95,2.19-2.95h0.3c0.48,0,0.93,0.81,1.34,1.12
							c0.46,0.33,1.1,1.33,1.9,2.12c-0.04,0.13-0.1,0.39-0.16,0.57c-1.29,4.15-2.33,7.17-3.09,8.9c-0.14,0.33-0.28,0.64-0.41,0.93
							l-0.08,0.09l-0.06,0.1C1343.4,522.33,1342.98,522.46,1343,522.47z M1310.95,540.39c-0.1,0.64-0.21,1.16-0.32,1.57
							c-0.2-0.48-0.44-1.13-0.69-2.02c-0.76-2.35-1.43-5.64-2.01-9.73c-0.2-1.44-0.38-2.96-0.56-4.57c2.16,2.65,3.4,6.01,3.71,10.04
							C1311.22,537.35,1311.18,538.94,1310.95,540.39z M1310.02,476.98c0.65-1.5,1.1-2.18,1.36-2.49c0.33-0.38,0.55-0.49,0.63-0.49
							c0.47,0,0.87,0.17,1.23,0.53c0.43,0.42,0.77,0.98,1.03,1.67c0.27,0.77,0.51,1.53,0.64,2.27c0.14,0.75,0.28,1.52,0.33,2.28
							c0.01,0.13,0.03,0.26,0.05,0.4c-0.64,2.88-1.08,6.22-1.3,10.01c-0.84,2.72-2.4,5.57-4.06,8.51c-1.12,1.99-3.55,3.87-3.55,5.62
							v-0.94c0-9.15,0.79-16.78,2.17-22.68C1309.03,479.8,1309.48,478.21,1310.02,476.98z M1312.2,517.07
							c-1.71,1.36-3.6,2.06-5.51,2.1c-0.2-2.66-0.45-5.34-0.54-8c2.37-2.56,4.47-5.8,6.66-9.64c0.4-0.72,0.77-1.44,1.12-2.16
							c0.17,4.74,0.81,9.37,1.94,13.85C1315.06,514.5,1313.83,515.79,1312.2,517.07z M1329.13,478.04c0.42,1.71,0.73,3.75,0.73,6.05
							c0,5.32-1.47,11.09-4.44,17.14c-1.37,2.75-2.88,5.2-4.54,7.32c-0.7-4.03-1.04-8.08-1.04-12.05c0-7.42,0.68-13.17,1.99-17.08
							c0.85-2.5,2.25-5.49,4.12-5.49c0.69,0,1.13,0.34,1.76,1.04c0.68,0.77,1.2,1.77,1.2,2.89v0.1L1329.13,478.04z"/>
						<path class="st4" d="M1581.12,493.13c-1.27-0.96-2.72-1.74-4.32-2.3c-1.57-0.55-3.07-0.92-4.44-1.09
							c-0.75-0.1-1.61-0.14-2.55-0.14c-0.8,0-1.67,0.03-2.62,0.11c-2.02,0.14-3.65,0.32-4.86,0.51c-1.19,0.2-2.9,0.49-5.13,0.87
							c-1.1,0.2-2.03,0.35-2.78,0.49c0.26-3.5,0.74-6.91,1.44-10.14c0.19-0.89,0.06-1.67-0.38-2.31c-0.42-0.61-0.96-1.02-1.65-1.23
							c-0.26-0.07-0.51-0.1-0.77-0.1c-0.51,0-1,0.13-1.47,0.39c-0.73,0.39-1.2,0.97-1.39,1.69c-0.98,3.27-1.57,7.43-1.75,12.37
							c-3.28,0-5.69-0.6-7.15-1.78c-0.38-0.32-1-0.6-1.99-0.89c-0.53-0.14-1-0.2-1.42-0.2c-0.74,0-1.35,0.21-1.81,0.67
							c-0.81,0.96-0.74,2.08,0.31,2.99c2.41,2.15,5.97,3.24,10.16,3.24c0.59,0,1.97-0.02,1.97-0.07v0.73
							c0,5.8,0.13,10.88,0.84,15.23c-1.1,0.38-2.38,0.59-3.51,0.59c-1.1,0-2.31-0.18-3.46-0.54c-0.64-1.9-1.75-3.48-3.22-4.71
							c-1.73-1.43-3.55-2.15-5.36-2.15c-0.39,0-0.79,0.03-1.05,0.09c-0.12,0-0.25,0.01-0.36,0.03c-0.26-0.07-0.53-0.11-0.81-0.11
							c-0.18,0-0.37,0.04-0.62,0.11c-1.61,0.56-2.91,1.9-3.87,3.97c-0.73,1.56-1.16,3.09-1.31,4.55c-0.82,1.93-1.89,3.97-3.22,6.09
							c-0.7,1.08-1.3,1.94-1.76,2.53c-0.28,0.34-0.52,0.6-0.73,0.81c-0.02-0.13-0.05-0.29-0.07-0.47c-0.09-0.74-0.2-2.12-0.3-4.22
							c-0.2-4.1-0.51-6.94-0.91-8.69c-0.81-3.74-2.51-5.63-4.95-5.63c-1.13,0-2.29,0.66-3.26,1.95c-0.86,1.14-1.93,2.81-2.99,5.15
							c-0.48,1.16-2.27,4.72-2.27,4.72v0.07l0.24,0.19c-0.13,0.27,0.11,0.53,0.03,0.76c-0.82,2.05-1.5,3.66-1.96,4.75
							c-0.98-3.21-1.84-6.23-2.51-9.02c2.45-2.71,4.75-6.11,6.73-10.11c3.13-6.32,4.98-12.46,4.98-18.42v-0.36
							c0-3.91-0.54-7.13-1.54-9.59c-1.48-3.59-3.83-5.42-7.03-5.42c-2.24,0-4.23,0.86-5.88,2.56c-1.38,1.44-2.52,3.46-3.38,6.03
							c-1.42,4.32-2.13,10.29-2.13,17.74c0,5.31,0.9,11.72,2.6,19.04l0.1,0.13l0.2,0.09c1.01,4.37,2.04,8.41,3.92,12.01v0.06
							l-0.27,0.13c0.37,1.05,0.84,1.79,1.89,2.14c0.34,0.14,0.68,0.21,1.01,0.21c0.25,0,0.5-0.03,0.76-0.1l0.23-0.04l0.06-0.07
							c0.4-0.15,0.74-0.39,0.94-0.65c0.65-0.62,1.83-2.26,4.56-9.24c0.17-0.28,0.37-0.74,0.63-1.41c0.87-2.17,1.56-3.85,2.08-5.02
							c0.06-0.14,0.11-0.27,0.13-0.41c0.51-0.98,0.87-1.57,1.12-1.92c0.11,0.28,0.25,0.74,0.39,1.5c0.28,1.21,0.49,3.53,0.64,6.89
							c0.1,3.06,0.24,5.12,0.45,6.29c0.51,2.78,1.68,4.2,3.46,4.2c1.87,0,3.86-1.43,6.03-4.33c0.65-0.75,1.31-1.66,1.96-2.72
							c0.33-0.5,0.61-1.01,0.9-1.52c0.29,0.74,0.62,1.46,1.04,2.12c1.65,2.55,3.92,3.84,6.76,3.84c2.99,0,5.3-1.32,6.85-3.95
							c0.36-0.62,0.66-1.3,0.87-1.98l0.02-0.14c0.46-1.29,0.71-2.7,0.73-4.23c0.94,0.18,1.88,0.28,2.79,0.28
							c1.35,0,2.68-0.23,4-0.63c0.08,0.38,0.16,0.76,0.25,1.12c1.98,8.01,5.74,12.07,10.67,12.07c1.12,0,2.23-0.36,3.3-1.08
							c1-0.66,1.87-1.44,2.57-2.3c0.69-0.85,1.41-2.02,2.19-3.6c0.76-1.5,1.33-2.73,1.7-3.65c0.36-0.89,0.86-2.14,1.46-3.68
							c0.22-0.43,0.35-0.74,0.41-0.9c0.15-0.47,0.13-0.96-0.06-1.42c-0.2-0.48-0.56-0.84-1.04-1.04c-0.24-0.1-0.49-0.16-0.73-0.16
							c-0.26,0-0.5,0.06-0.74,0.16c-0.47,0.21-0.8,0.59-0.93,0.98c-0.1,0.21-0.24,0.52-0.39,0.94c-0.95,2.42-1.76,4.31-2.37,5.6
							c-0.38,0.75-0.71,1.36-0.97,1.8c-0.26,0.45-0.64,0.97-1.11,1.6c-0.43,0.57-0.92,1.01-1.37,1.29c-0.4,0.26-0.92,0.38-1.35,0.38
							c-2.38,0-4.46-2.96-5.77-8.82c-0.77-3.39-1.16-7.51-1.52-12.26c-0.1-2.05,0.17-4.21,0.17-6.51c0-0.32,0-0.66,0-1
							c1.88-0.16,2.19-0.38,3.64-0.69c2.08-0.34,3.96-0.61,5.08-0.8c1.09-0.19,2.5-0.36,4.35-0.5c1.01-0.08,1.87-0.11,2.68-0.11
							c0.66,0,1.24,0.02,1.77,0.08c1.14,0.12,2.38,0.4,3.7,0.83c1.29,0.43,2.44,1.04,3.35,1.74c0.34,0.34,0.75,0.52,1.21,0.52
							c0.58,0,1.08-0.25,1.48-0.72C1582.16,494.94,1582.06,493.9,1581.12,493.13z M1536.09,522.5c-1.08,0-2.1-0.56-3.11-1.7
							c-1.04-1.16-1.55-2.68-1.55-4.63c0-1.06,0.19-2.1,0.54-3.07c0.45-1.23,0.78-1.81,0.98-2.09c0.08-0.1,0.15-0.2,0.22-0.28
							c1.55,1.66,3.42,3.05,5.61,4.14l0.32,0.13c0.04,0.35,0.08,0.69,0.08,1.03c0,1.21-0.16,2.34-0.53,3.37l-0.01,0.24
							c-0.03,0.05,0.27,0.11,0.23,0.16l0.27,0.14v0.23c0,0.76-1.25,1.38-1.82,1.83l-0.71,0.36
							C1536.34,522.49,1536.09,522.5,1536.09,522.5z M1507.84,476.82c0.75,2.46,1.13,5.06,1.13,7.7c-0.1,5.23-1.6,10.86-4.49,16.71
							c-1.28,2.56-2.72,4.91-4.3,7.01c-0.93-4.97-1.4-9.69-1.4-14.06c0-6.27,0.69-11.4,2.02-15.23c1.25-3.58,2.84-5.39,4.74-5.39
							C1506.68,473.56,1507.47,475.61,1507.84,476.82z"/>
					</g>
					<path class="st5" d="M1247.89,201.1c-1.5,4.75-2.81,8.24-3.68,11.82c-0.79,3.21-0.77,6.65,2.54,8.49
						c3.22,1.79,5.77-0.43,7.9-2.54c10.62-10.48,23.77-16.26,38.09-21.2c0,3.44-2.35,5.05-3.32,7.28c-1.58,3.59-4.4,7.37-1.72,11.2
						c2.91,4.15,7.62,2.71,11.61,1.87c8.63-1.82,16.6-5.51,24.5-9.39c2.91-1.43,9.64-4.89,9.64-4.89c1,4.58-0.29,8.59-1.06,12.03
						c-4.87,21.5-20.27,32.55-45.86,34.18c-12.71,0.81-25.51,0.08-38.13,2.22c-2.53,0.43-5.11,1.03-7.47,1.99
						c-11.34,4.63-12.4,10.99-3.23,18.68c21.24,17.8,28.86,54.06,16.49,78.74c-1.24,2.48-2.6,5.02-4.44,7.06
						c-9.84,10.92-15.69,12.36-25.37,8.14c-10.3-4.49-15.37-13.5-13.86-25.13c1.58-12.2,6.27-23.44,10.54-34.8
						c2.04-5.43,4.08-10.83,4.53-16.66c0.57-7.43-2.22-10.7-9.66-11.49c-5.84-0.61-11.49,0.84-17.21,1.6
						c-2.43,0.33-5.67,1.85-7.01-1.15c-1.43-3.18,1.66-4.88,3.81-6.61c4.11-3.3,9.25-4.61,13.78-7.1c3.5-1.92,3.73-3.78,1.43-7.01
						c-12.22-17.12-10.23-27.9,6.82-40.12C1226.78,211.72,1236.85,206.79,1247.89,201.1z"/>
					<path class="st5" d="M1279.61,279.81c-0.64,4.05-3.38,5.72-7.1,5.48c-3.53-0.23-5.88-2.44-5.83-6.1
						c0.05-3.81,2.63-5.6,6.23-5.42C1276.57,273.97,1279.34,275.57,1279.61,279.81z"/>
					<g>
						<path class="st4" d="M962.28,449.3c-5.21-3.01-9.31-7.21-12.29-12.59c-2.98-5.38-4.47-11.47-4.47-18.27
							c0-6.8,1.49-12.89,4.47-18.27c2.98-5.38,7.07-9.57,12.29-12.59c5.21-3.01,11.1-4.52,17.65-4.52c5.72,0,10.87,1.1,15.46,3.31
							c4.59,2.2,8.4,5.38,11.44,9.52l-11.26,11.08c-4.05-5.31-8.97-7.97-14.75-7.97c-3.4,0-6.42,0.81-9.07,2.43
							c-2.65,1.62-4.71,3.9-6.17,6.85c-1.46,2.95-2.19,6.33-2.19,10.16c0,3.82,0.73,7.21,2.19,10.16c1.46,2.95,3.51,5.23,6.17,6.85
							c2.65,1.62,5.68,2.43,9.07,2.43c5.78,0,10.69-2.66,14.75-7.97l11.26,11.08c-3.04,4.15-6.85,7.32-11.44,9.52
							c-4.59,2.2-9.74,3.3-15.46,3.3C973.37,453.82,967.49,452.32,962.28,449.3z"/>
						<path class="st4" d="M1069.75,384.43v68.03h-17.7v-26.53h-24.13v26.53h-17.7v-68.03h17.7v25.56h24.13v-25.56H1069.75z"/>
						<path class="st4" d="M1077.8,384.43h17.7v68.03h-17.7V384.43z"/>
						<path class="st4" d="M1117.17,449.3c-5.21-3.01-9.31-7.21-12.29-12.59c-2.98-5.38-4.47-11.47-4.47-18.27
							c0-6.8,1.49-12.89,4.47-18.27c2.98-5.38,7.07-9.57,12.29-12.59c5.21-3.01,11.1-4.52,17.65-4.52c5.72,0,10.87,1.1,15.46,3.31
							c4.59,2.2,8.4,5.38,11.44,9.52l-11.26,11.08c-4.05-5.31-8.97-7.97-14.75-7.97c-3.4,0-6.42,0.81-9.07,2.43
							c-2.65,1.62-4.71,3.9-6.17,6.85c-1.46,2.95-2.19,6.33-2.19,10.16c0,3.82,0.73,7.21,2.19,10.16c1.46,2.95,3.51,5.23,6.17,6.85
							c2.65,1.62,5.68,2.43,9.07,2.43c5.78,0,10.69-2.66,14.75-7.97l11.26,11.08c-3.04,4.15-6.85,7.32-11.44,9.52
							c-4.59,2.2-9.74,3.3-15.46,3.3C1128.27,453.82,1122.38,452.32,1117.17,449.3z"/>
						<path class="st4" d="M1189.25,427.78l-6.61,7.68v17.01h-17.52v-68.03h17.52v28.28l24.22-28.28h19.48l-25.56,30.13l26.9,37.9
							h-20.56L1189.25,427.78z"/>
						<path class="st4" d="M1278.1,437.59v14.87h-50.23v-68.03h49.07v14.87h-31.55v11.47h27.8v14.38h-27.8v12.44H1278.1z"/>
						<path class="st4" d="M1342.99,384.43v68.03h-14.57l-27.62-36.25v36.25h-17.34v-68.03h14.57l27.62,36.25v-36.25H1342.99z"/>
						<path class="st6" d="M1429.06,452.46l-0.18-36.06l-16.09,29.35h-7.87l-16-28.38v35.08h-16.36v-68.03h14.57l21.99,39.26
							l21.45-39.26h14.57l0.18,68.03H1429.06z"/>
						<path class="st6" d="M1495.29,439.25h-26.46l-4.92,13.22h-18.05l27.62-68.03h17.43l27.71,68.03h-18.41L1495.29,439.25z
							 M1490.1,425.06l-8.04-21.77l-8.04,21.77H1490.1z"/>
						<path class="st6" d="M1578.68,384.43v68.03h-14.57l-27.62-36.25v36.25h-17.34v-68.03h14.57l27.62,36.25v-36.25H1578.68z"/>
					</g>
				</g>
			</g>
		</g>
	</g>
</g>
</svg>
